<?xml version="1.0" encoding="UTF-8" standalone="no"?>
<!-- Created with Inkscape (http://www.inkscape.org/) -->

<svg
   xmlns:dc="http://purl.org/dc/elements/1.1/"
   xmlns:cc="http://creativecommons.org/ns#"
   xmlns:rdf="http://www.w3.org/1999/02/22-rdf-syntax-ns#"
   xmlns:svg="http://www.w3.org/2000/svg"
   xmlns="http://www.w3.org/2000/svg"
   xmlns:sodipodi="http://sodipodi.sourceforge.net/DTD/sodipodi-0.dtd"
   xmlns:inkscape="http://www.inkscape.org/namespaces/inkscape"
   width="32"
   height="32"
   viewBox="0 0 8.4666667 8.4666667"
   version="1.1"
   id="svg8"
   inkscape:version="0.92.5 (2060ec1f9f, 2020-04-08)"
   sodipodi:docname="server.svg">
  <defs
     id="defs2" />
  <sodipodi:namedview
     id="base"
     pagecolor="#ffffff"
     bordercolor="#666666"
     borderopacity="1.0"
     inkscape:pageopacity="0.0"
     inkscape:pageshadow="2"
     inkscape:zoom="22.4"
     inkscape:cx="12.930477"
     inkscape:cy="17.263129"
     inkscape:document-units="mm"
     inkscape:current-layer="layer2"
     showgrid="true"
     units="px"
     inkscape:snap-object-midpoints="false"
     inkscape:window-width="1920"
     inkscape:window-height="1017"
     inkscape:window-x="0"
     inkscape:window-y="27"
     inkscape:window-maximized="1">
    <inkscape:grid
       type="xygrid"
       id="grid815" />
  </sodipodi:namedview>
  <metadata
     id="metadata5">
    <rdf:RDF>
      <cc:Work
         rdf:about="">
        <dc:format>image/svg+xml</dc:format>
        <dc:type
           rdf:resource="http://purl.org/dc/dcmitype/StillImage" />
        <dc:title />
      </cc:Work>
    </rdf:RDF>
  </metadata>
  <g
     inkscape:groupmode="layer"
     id="layer2"
     inkscape:label="Layer 2">
    <path
       style="fill:#ffffff;fill-opacity:1;stroke-width:37.79527664;stroke-miterlimit:4;stroke-dasharray:none"
       d="M 3 0 A 3 3 0 0 0 0 3 L 0 29 A 3 3 0 0 0 3 32 L 29 32 A 3 3 0 0 0 32 29 L 32 3 A 3 3 0 0 0 29 0 L 3 0 z "
       transform="scale(0.26458333)"
       id="rect815" />
  </g>
  <g
     inkscape:label="Layer 1"
     inkscape:groupmode="layer"
     id="layer1"
     transform="translate(0,-288.53333)">
    <path
       style="fill:#31363b;fill-opacity:1;stroke-width:40.82356262;stroke-miterlimit:4;stroke-dasharray:none"
       d="M 4 2 A 1.9999999 1.9999999 0 0 0 2 4 L 2 8 A 1.9999999 1.9999999 0 0 0 4 10 L 28 10 A 1.9999999 1.9999999 0 0 0 30 8 L 30 4 A 1.9999999 1.9999999 0 0 0 28 2 L 4 2 z M 21 4.5 A 1.5 1.5 0 0 1 22.5 6 A 1.5 1.5 0 0 1 21 7.5 A 1.5 1.5 0 0 1 19.5 6 A 1.5 1.5 0 0 1 21 4.5 z M 25 4.5 A 1.5 1.5 0 0 1 26.5 6 A 1.5 1.5 0 0 1 25 7.5 A 1.5 1.5 0 0 1 23.5 6 A 1.5 1.5 0 0 1 25 4.5 z M 4 12 A 1.9999999 1.9999999 0 0 0 2 14 L 2 18 A 1.9999999 1.9999999 0 0 0 4 20 L 28 20 A 1.9999999 1.9999999 0 0 0 30 18 L 30 14 A 1.9999999 1.9999999 0 0 0 28 12 L 4 12 z M 21 14.5 A 1.5 1.5 0 0 1 22.5 16 A 1.5 1.5 0 0 1 21 17.5 A 1.5 1.5 0 0 1 19.5 16 A 1.5 1.5 0 0 1 21 14.5 z M 25 14.5 A 1.5 1.5 0 0 1 26.5 16 A 1.5 1.5 0 0 1 25 17.5 A 1.5 1.5 0 0 1 23.5 16 A 1.5 1.5 0 0 1 25 14.5 z M 4 22 A 1.9999999 1.9999999 0 0 0 2 24 L 2 28 A 1.9999999 1.9999999 0 0 0 4 30 L 28 30 A 1.9999999 1.9999999 0 0 0 30 28 L 30 24 A 1.9999999 1.9999999 0 0 0 28 22 L 4 22 z M 21 24.5 A 1.5 1.5 0 0 1 22.5 26 A 1.5 1.5 0 0 1 21 27.5 A 1.5 1.5 0 0 1 19.5 26 A 1.5 1.5 0 0 1 21 24.5 z M 25 24.5 A 1.5 1.5 0 0 1 26.5 26 A 1.5 1.5 0 0 1 25 27.5 A 1.5 1.5 0 0 1 23.5 26 A 1.5 1.5 0 0 1 25 24.5 z "
       transform="matrix(0.26458333,0,0,0.26458333,0,288.53333)"
       id="rect817" />
  </g>
</svg>
